<?xml version="1.0" encoding="UTF-8" standalone="no"?>
<svg
   xmlns:dc="http://purl.org/dc/elements/1.1/"
   xmlns:cc="http://creativecommons.org/ns#"
   xmlns:rdf="http://www.w3.org/1999/02/22-rdf-syntax-ns#"
   xmlns:svg="http://www.w3.org/2000/svg"
   xmlns="http://www.w3.org/2000/svg"
   id="svg8"
   version="1.1"
   viewBox="0 0 135.46666 135.46667"
   height="512"
   width="512">
  <defs
     id="defs2" />
  <metadata
     id="metadata5">
    <rdf:RDF>
      <cc:Work
         rdf:about="">
        <dc:format>image/svg+xml</dc:format>
        <dc:type
           rdf:resource="http://purl.org/dc/dcmitype/StillImage" />
        <dc:title></dc:title>
      </cc:Work>
    </rdf:RDF>
  </metadata>
  <g
     id="layer1">
    <circle
       r="67.73333"
       cy="67.73333"
       cx="67.73333"
       id="path12"
       style="fill:#00c88c;fill-rule:evenodd;stroke-width:0.264583;fill-opacity:1" />
    <path
       transform="scale(0.26458333)"
       d="M 112 96 C 103.136 96 96 103.136 96 112 L 96 144 C 96 152.864 103.136 160 112 160 L 224 160 L 224 448 C 224 456.86401 231.136 464 240 464 L 272 464 C 280.864 464 288 456.86401 288 448 L 288 160 L 400 160 C 408.86401 160 416 152.864 416 144 L 416 112 C 416 103.136 408.86401 96 400 96 L 112 96 z "
       style="fill:#ffffff;fill-opacity:1;stroke-width:0.597611"
       id="rect837" />
  </g>
</svg>
